<svg id="Layer_1" data-name="Layer 1" xmlns="http://www.w3.org/2000/svg" viewBox="0 0 136.52 25.12"><defs><style>.cls-1{font-size:8.52px;font-family:TWKEverett-Regular, TWK Everett;}.cls-2{letter-spacing:-0.05em;}.cls-3{letter-spacing:-0.01em;}.cls-4{letter-spacing:0em;}.cls-5{letter-spacing:-0.01em;}.cls-6{letter-spacing:-0.01em;}.cls-7{fill:#ff462d;}</style></defs><text class="cls-1" transform="translate(0 7.5)"><tspan class="cls-2">K</tspan><tspan x="5.46" y="0">yndryl Italia </tspan><tspan class="cls-3" x="55.23" y="0">I</tspan><tspan class="cls-4" x="57.65" y="0">nn</tspan><tspan class="cls-5" x="67.92" y="0">o</tspan><tspan class="cls-3" x="73.06" y="0">v</tspan><tspan class="cls-6" x="77.9" y="0">a</tspan><tspan x="82.8" y="0">tion Services</tspan></text><path id="Kyndryl_logo_TM" data-name="Kyndryl logo TM" class="cls-7" d="M30.3,15.27v7.38h-.86V15.27ZM12.79,17.62a1.37,1.37,0,0,0-1.45,1.23h-.05V17.73h-.86v4.92h.86V19.59a1.07,1.07,0,0,1,1.18-1.21c.85,0,1.23.42,1.23,1.25v3h.87V19.52A1.7,1.7,0,0,0,12.79,17.62Zm-5.3,4.9h0L6,17.73h-.9l1.59,4.92h.8l-.81,2.47H7.5l2.38-7.39H9Zm19,0h0L25,17.73h-.9l1.59,4.92h.8l-.81,2.47h.86l2.39-7.39H28ZM2.57,20.19,4.7,17.73H3.65l-2,2.38h0V15.27H.76v7.38h.87V20.24h.82l1.67,2.41h1L3.4,20.19ZM22,18.85h0V17.73h-.87v4.92H22V19.58c0-.83.47-1.13,1.27-1.13a2.06,2.06,0,0,1,.54.06v-.84a1.28,1.28,0,0,0-.41-.05A1.32,1.32,0,0,0,22,18.85Zm-2.89-3.58H20v7.38h-.87V21.54h0a1.43,1.43,0,0,1-1.61,1.23c-1.22,0-2.08-1-2.08-2.58s.86-2.57,2.08-2.57a1.43,1.43,0,0,1,1.61,1.23h0Zm0,4.27c0-.83-.62-1.16-1.4-1.16s-1.43.51-1.43,1.81S16.91,22,17.73,22s1.4-.34,1.4-1.17Zm11.56,2.59v.06h.16v.46h.07v-.46h.16v-.06Zm.87,0-.13.52h0l-.12-.52h-.15v.52h.07v-.51h0l.13.51h.13l.14-.51h0v.51h.08l0-.52Z" transform="translate(0 0)"/></svg>